<svg width="823" height="62" viewBox="0 0 823 62" fill="none" xmlns="http://www.w3.org/2000/svg">
<path fill-rule="evenodd" clip-rule="evenodd" d="M84.2 37.4246V2.3999H106.7V59.9999H84.2L24.8 25.6063V59.9999H2.29999V2.3999H24.8L84.2 37.4246ZM26.8 29.0754L83.6628 61.9999H108.7V0.399902H82.2V33.9235L25.3457 0.399902H0.299988V61.9999H26.8V29.0754ZM212.182 40.8999V61.9999H117.282V0.399902H212.002V21.4999H143.782V24.6999H199.582V37.6999H143.782V40.8999H212.182ZM141.782 42.8999V35.6999H197.582V26.6999H141.782V19.4999H210.002V2.3999H119.282V59.9999H210.182V42.8999H141.782ZM248.398 61.9999L213.94 0.399902H243.959L265.473 42.7868L285.566 0.399902H315.276L335.369 42.7868L356.883 0.399902H386.523L352.45 61.9999H319.628L300.421 24.4903L281.214 61.9999H248.398ZM300.421 20.1022L320.851 59.9999H351.271L383.131 2.3999H358.111L335.308 47.3265L314.011 2.3999H286.831L265.534 47.3265L242.731 2.3999H217.351L249.571 59.9999H279.991L300.421 20.1022ZM512.949 0.399902L474.177 46.0644V61.9999H447.677V46.0644L408.906 0.399902H440.744L461.017 25.9722L481.105 0.399902H512.949ZM461.024 29.2007L439.777 2.3999H413.227L449.677 45.3299V59.9999H472.177V45.3299L508.627 2.3999H482.077L461.024 29.2007ZM608.305 40.8999V61.9999H513.405V0.399902H608.125V21.4999H539.905V24.6999H595.705V37.6999H539.905V40.8999H608.305ZM537.905 42.8999V35.6999H593.705V26.6999H537.905V19.4999H606.125V2.3999H515.405V59.9999H606.305V42.8999H537.905ZM651.184 2.3999H676.204L715.174 59.9999H690.424L684.771 51.2699H642.931L637.324 59.9999H612.574L651.184 2.3999ZM651.601 37.7699H676.031L663.766 18.8277L651.601 37.7699ZM663.773 22.5181L655.262 35.7699H672.353L663.773 22.5181ZM644.023 53.2699L638.416 61.9999H608.825L650.117 0.399902H677.265L718.942 61.9999H689.336L683.684 53.2699H644.023ZM720.388 61.9999V0.399902H791.958C797.562 0.399902 802.64 1.04541 807.172 2.36517C811.846 3.64837 815.654 5.86448 818.474 9.0821C821.464 12.424 822.848 16.8768 822.848 22.1999C822.848 25.73 822.207 28.8209 820.796 31.3612C819.423 33.8333 817.514 35.7811 815.09 37.1664C814.66 37.4124 814.219 37.6451 813.768 37.8647C815.4 38.4398 816.765 39.1923 817.793 40.1682C819.87 42.0231 820.778 44.6356 820.778 47.6699V61.9999H794.278V50.3699C794.278 48.7836 793.952 47.964 793.636 47.5693L793.591 47.5127L793.55 47.453C793.401 47.2369 792.677 46.668 790.394 46.3167L790.386 46.3155C788.269 45.9812 784.86 45.7999 780.078 45.7999H746.888V61.9999H720.388ZM744.888 43.7999H780.078C784.878 43.7999 788.418 43.9799 790.698 44.3399C793.038 44.6999 794.538 45.3599 795.198 46.3199C795.918 47.2199 796.278 48.5699 796.278 50.3699V59.9999H818.778V47.6699C818.778 45.0299 817.998 43.0199 816.438 41.6399C815.269 40.5174 813.37 39.6683 810.742 39.0927C809.999 38.9299 809.198 38.789 808.338 38.6699C807.909 38.6096 807.46 38.5523 806.99 38.4979C806.464 38.4372 805.912 38.3801 805.335 38.3269C805.86 38.2389 806.381 38.1432 806.898 38.0399C807.436 37.9324 807.961 37.8117 808.475 37.678C808.476 37.6778 808.477 37.6777 808.477 37.6775C809.213 37.4859 809.925 37.2675 810.612 37.0223C811.854 36.5792 813.016 36.0484 814.098 35.4299C816.198 34.2299 817.848 32.5499 819.048 30.3899C820.248 28.2299 820.848 25.4999 820.848 22.1999C820.848 17.2199 819.558 13.2899 816.978 10.4099C814.458 7.5299 811.008 5.4899 806.628 4.28991C802.308 3.0299 797.418 2.3999 791.958 2.3999H722.388V59.9999H744.888V43.7999ZM795.581 26.0725L795.598 26.0642C795.879 25.9302 796.027 25.7752 796.125 25.5975C796.236 25.3974 796.348 25.0471 796.348 24.4499C796.348 23.9345 796.244 23.6612 796.16 23.5214C796.087 23.3995 795.962 23.2633 795.67 23.1382L795.616 23.115L795.563 23.0888C794.719 22.6667 793.549 22.3999 791.958 22.3999H746.888V26.7699H791.958C793.549 26.7699 794.719 26.5031 795.563 26.081L795.581 26.0725ZM744.888 28.7699V20.3999H791.958C793.758 20.3999 795.258 20.6999 796.458 21.2999C797.718 21.8399 798.348 22.8899 798.348 24.4499C798.348 26.1299 797.718 27.2699 796.458 27.8699C795.258 28.4699 793.758 28.7699 791.958 28.7699H744.888Z" fill="black"/>
</svg>
